<svg xmlns="http://www.w3.org/2000/svg" viewBox="124 -14 440 440"><path d="M250.298 102.758c10.452-6.14 14.369-4.592 25.945-2.51 4.377.788 10.004-.46 14.736 1.108 5.572 1.845 9.535 5.607 14.374 8.717 5.628 3.504 10.823 6.115 15.496 10.974 3.238 3.37 6.826 5.718 9.07 10.071 1.485 2.88 5.921 5.094 8.731 6.524-4.445 7.12-12.222 16.064-17.804 22.222-4.37 4.82-8.226 7.37-11.985 13.312-8.49 2.647-12.904 20.143-15.32 28.05-.583 1.907.389 4.073-.579 7.18l-.144.453c2.506 4.533 2.281 6.442 2.506 11.398 5.382 7.916 9.825 15.715 19.234 18.61 3.208 4.637 6.267 5.952 11.95 6.32 9.932.644 20.677-3.085 28.31-9.408 2.323-1.923 3.39-3.555 4.6-6.283.849-1.582 3.263-2.295 3.998-5.435.562-2.396.743-5.958 1.668-8.03.844-1.89 3.302-4.56 3.625-6.856.44-3.118.353-6.463.533-9.62.32-5.61 3.997-8.01 7.947-11.412-.088-1.177-.255-2.431-.388-3.61 2.095-2.134 2.86-2.967 5.718-4.12 1.065-2.114 3.458-5.945 3.13-8.13l-.471-.29c-2.538.846-16.597 18.485-20.1 21.454-5.824 5.07-8.85 8.949-12.288 15.827-4.375 8.754-12.387 13.631-20.958 17.36-8.68-1.15-12.549-3.538-18.758-10.033-5.367-5.615-6.488-16.131-3.154-23.102 1.518-3.173 4.454-6.063 6.397-8.954 5.294-7.879 11.472-14.931 17.485-22.244 4.714-5.755 9.118-11.923 14.005-17.542 2.2-2.529 5.533-4.451 8.08-6.676l.29-.256c.47-2.132.592-3.078 1.612-5.012.895-.631 9.707-8.052 8.455-7.715 4.181-1.126 5.576-3.82 8.38-5.544 6.873-3.918 18.742-8.486 26.484-9.49 10.788-1.397 28.7 6.494 37.047 13.356 6.077 4.997 12.387 11.106 16.923 17.35 1.198 1.65-2.692 5.57 2.49 7.084 1.923.747 4.17 11.288 4.588 14.077l-4.006.293c1.736 6.605.872 7.293-.605 13.979 1.596.057 3.47-.049 4.727.907.868 2.438-1.494 4.083-1.304 6.099.808.618 2.046.362 3.548.638 2.13 1.992-1.276 5.84-1.744 8.244-.388 1.992-.17 5.035-1.13 6.714-.507.89-3.07.898-3.97 2.053 0 1.374 1.303 1.496 1.889 3.006.498 1.285-1.036 2.64-1.417 3.634-.903 2.36 1.38 3.93-.225 6.747-1.609 2.822-3.528 5.427-5.148 8.235-1.84 3.191-3.481 7.14-5.602 10.093-2.113 2.944-6.254 4.801-8.673 7.802-2.168 2.688-4.647 5.323-6.745 8.075-2.2 2.886-4.22 6.423-6.927 8.84-4.308 3.846-9.365 6.597-13.357 10.876-2.236 2.394-3.795 4.254-5.586 6.991-1.69 2.582-3.934 7.055-6.034 9.147-5.364 5.34-11.947 9.823-17.833 14.746-3.646 3.049-6.383 7.021-9.559 9.749-8.428 7.237-19.356 14.9-29.603 19.252-1.424.604-4.442 1.282-5.721.435-.133-.089-1.998-1.34-2.007-1.34-.682.013-2.07 1.47-2.702 1.79-2.376 1.208-6.145 2.006-8.758 2.108-4.983.195-6.457-.735-9.794-3.728-1.196.571-2.446 1.239-3.634 1.844-2.071-.613-8.981-2.94-10.022-4.7.1-.903.238-1.398-.063-2.258l-.774-.362c-1.027.098-1.63.874-2.44 1.61-6.276-2.873-11.073-4.306-14.076-10.882-6.188-3.408-9.387-7.64-14.52-12.185-7.13-5.707-11.997-14.79-18.705-20.684-8.388-7.371-17.548-14.154-25.608-22.015-3.192-3.113-3.97-6.345-6.93-9.456-1.536-1.614-4.865-2.38-6.54-3.979-5.536-7.047-10.052-14.938-13.645-23.192-.962-2.208-4.342-6.184-1.41-8.973.382-.364.498-.18 1.068-.089 2.454 2.181 5.097 10.163 6.83 13.452 1.143 2.17 2.526 4.096 4.058 6.005 2.767 3.45 18.751 21.322 21.575 21.942.455.1.62-.186.963-.438-.05-.622-.003-.933-.498-1.466-4.527-4.878-9.876-9.642-13.678-15.106-8.588-12.342-15.185-27.055-17.18-42.018-.26-1.946-2.217-7.232-4.136-7.812l-.518.406c-1.474 4.313.099 10.718.92 15.166.23 1.582.79 3.773-.121 5.062-1.35-.037-2.188-2.045-2.837-3.148a74 74 0 0 1-.558-.83c-.856-1.301-2.041-3.234-2.383-4.826-.999-4.652-1-11.247-.953-16.029-.08-1.628 1.379-6.606 1.205-7.933-.996-7.597 1.541-11.14 4.65-17.797.84-1.8.99-5.664 1.54-7.873 1.02-4.09 3.761-6.361 7.184-8.503 2.044-4.398 3.111-9.062 6.099-12.891 1.168.183 2.01.455 3.1.056.98-1.504-.066-2.99.182-3.302 3.963-4.988 13.1-9.192 17.265-14.3 2.04-2.503 13.935-5.382 17.09-7.173.354-.201 3.377.067 3.928.117"/><path d="M194.907 202.128c.23 1.582.79 3.773-.121 5.062-1.35-.037-2.188-2.045-2.837-3.148 2.022-.208 2.342.024 2.958-1.914"/><path d="M462.33 165.216c1.017.728.71.266 1.078 1.343-.31 1.063-1.062 1.483-1.944 2.211l-.647-.056-.223-.564c.37-1.31.897-1.82 1.737-2.934"/></svg>
